<svg xmlns="http://www.w3.org/2000/svg" width="105" height="93" viewBox="0 0 105 93">
    <defs>
        <linearGradient id="a" x1="50%" x2="50%" y1="0%" y2="100%">
            <stop offset="0%" stop-color="#F44881"/>
            <stop offset="100%" stop-color="#EC454F"/>
        </linearGradient>
        <linearGradient id="b" x1="50%" x2="50%" y1="100%" y2="1.467%">
            <stop offset="0%" stop-color="#F19A1A"/>
            <stop offset="100%" stop-color="#FFC73C"/>
        </linearGradient>
        <linearGradient id="c" x1="50%" x2="50%" y1="11.35%" y2="111.35%">
            <stop offset="0%" stop-color="#6EDCC4"/>
            <stop offset="100%" stop-color="#1AAB8B"/>
        </linearGradient>
        <linearGradient id="d" x1="50%" x2="50%" y1="100%" y2="0%">
            <stop offset="0%" stop-color="#8B60ED"/>
            <stop offset="100%" stop-color="#B372BD"/>
        </linearGradient>
        <linearGradient id="e" x1="50%" x2="50%" y1="0%" y2="97.483%">
            <stop offset="0%" stop-color="#21C8F6"/>
            <stop offset="100%" stop-color="#637BFF"/>
        </linearGradient>
    </defs>
    <g fill="none" fill-rule="evenodd" opacity=".301" style="mix-blend-mode:luminosity">
        <path fill="url(#a)" d="M2.921 6.649v2.746c.158.221.25.492.25.784v5.2l10.357-5.606L3.17 4.166v1.7c0 .291-.092.562-.25.783zM.465 5.797V1.913c0-.583.368-1.08.885-1.27a1.35 1.35 0 0 1 1.177.053l14.485 7.842c.247.123.46.322.597.586.108.207.16.43.158.649.001.219-.05.441-.158.649-.138.263-.35.463-.597.585L2.527 18.85a1.352 1.352 0 0 1-1.741-.4c-.2-.235-.32-.54-.32-.874v-2.473a1.277 1.277 0 0 1-.108-.514V6.31c0-.182.038-.356.107-.513z" opacity=".139" transform="rotate(159.051 50.968 19.61)"/>
        <path fill="url(#a)" d="M2.921 6.649v2.746c.158.221.25.492.25.784v5.2l10.357-5.606L3.17 4.166v1.7c0 .291-.092.562-.25.783zM.465 5.797V1.913c0-.583.368-1.08.885-1.27a1.35 1.35 0 0 1 1.177.053l14.485 7.842c.247.123.46.322.597.586.108.207.16.43.158.649.001.219-.05.441-.158.649-.138.263-.35.463-.597.585L2.527 18.85a1.352 1.352 0 0 1-1.741-.4c-.2-.235-.32-.54-.32-.874v-2.473a1.277 1.277 0 0 1-.108-.514V6.31c0-.182.038-.356.107-.513z" opacity=".08" transform="rotate(-135 48.585 34.589)"/>
        <rect width="11.293" height="7.554" y=".436" fill="#53B5FF" rx="3.777" transform="rotate(-45 75.868 20.982)"/>
        <g opacity=".267" transform="translate(-1.344 10.141)">
            <path fill="url(#b)" d="M33.878 9.978v4.624a3.746 3.746 0 0 1-3.746 3.746h-.037a3.746 3.746 0 0 1-3.746-3.746V3.837c0-1.523.909-2.833 2.213-3.419a3.742 3.742 0 0 1 3.48.025l40.127 21.41a3.731 3.731 0 0 1 1.48 1.113 3.76 3.76 0 0 1 .85 2.385 3.76 3.76 0 0 1-.85 2.386c-.4.5-.912.877-1.48 1.113L32.042 50.26a3.747 3.747 0 0 1-4.858-1.194 3.73 3.73 0 0 1-.835-2.358V26.5a3.746 3.746 0 0 1 3.746-3.746h.037a3.746 3.746 0 0 1 3.746 3.746v14.225L62.69 25.35 33.878 9.978z"/>
            <path fill="#FFF" d="M33.784 15.586v22.033a3.746 3.746 0 0 1-3.746 3.746h-.052a3.746 3.746 0 0 1-3.746-3.746V15.586a3.746 3.746 0 0 1 3.746-3.746h.052a3.746 3.746 0 0 1 3.746 3.746z"/>
            <rect width="11.293" height="7.554" y="22.754" fill="#53B5FF" rx="3.777"/>
        </g>
        <g opacity=".267" transform="rotate(135 40.844 29.102)">
            <path fill="url(#c)" d="M33.878 9.978v4.624a3.746 3.746 0 0 1-3.746 3.746h-.037a3.746 3.746 0 0 1-3.746-3.746V3.837c0-1.523.909-2.833 2.213-3.419a3.742 3.742 0 0 1 3.48.025l40.127 21.41a3.731 3.731 0 0 1 1.48 1.113 3.76 3.76 0 0 1 .85 2.385 3.76 3.76 0 0 1-.85 2.386c-.4.5-.912.877-1.48 1.113L32.042 50.26a3.747 3.747 0 0 1-4.858-1.194 3.73 3.73 0 0 1-.835-2.358V26.5a3.746 3.746 0 0 1 3.746-3.746h.037a3.746 3.746 0 0 1 3.746 3.746v14.225L62.69 25.35 33.878 9.978z"/>
            <path fill="#FFF" d="M33.784 15.586v22.033a3.746 3.746 0 0 1-3.746 3.746h-.052a3.746 3.746 0 0 1-3.746-3.746V15.586a3.746 3.746 0 0 1 3.746-3.746h.052a3.746 3.746 0 0 1 3.746 3.746z"/>
            <rect width="11.293" height="7.554" y="22.754" fill="#53B5FF" rx="3.777"/>
        </g>
        <g opacity=".267" transform="rotate(-154 42.058 26.435)">
            <path fill="url(#d)" d="M33.878 9.978v4.624a3.746 3.746 0 0 1-3.746 3.746h-.037a3.746 3.746 0 0 1-3.746-3.746V3.837c0-1.523.909-2.833 2.213-3.419a3.742 3.742 0 0 1 3.48.025l40.127 21.41a3.731 3.731 0 0 1 1.48 1.113 3.76 3.76 0 0 1 .85 2.385 3.76 3.76 0 0 1-.85 2.386c-.4.5-.912.877-1.48 1.113L32.042 50.26a3.747 3.747 0 0 1-4.858-1.194 3.73 3.73 0 0 1-.835-2.358V26.5a3.746 3.746 0 0 1 3.746-3.746h.037a3.746 3.746 0 0 1 3.746 3.746v14.225L62.69 25.35 33.878 9.978z"/>
            <path fill="#FFF" d="M33.784 15.586v22.033a3.746 3.746 0 0 1-3.746 3.746h-.052a3.746 3.746 0 0 1-3.746-3.746V15.586a3.746 3.746 0 0 1 3.746-3.746h.052a3.746 3.746 0 0 1 3.746 3.746z"/>
            <rect width="11.293" height="7.554" y="22.754" fill="#53B5FF" rx="3.777"/>
        </g>
        <g fill="url(#e)" transform="rotate(-45 33.53 3.832)">
            <path d="M8.862 44.38l28.041-16.305L8.862 11.769V44.38zM.54 51.21V4.94a4.19 4.19 0 0 1 .535-2.538A4.14 4.14 0 0 1 3.282.555c.443-.161.92-.249 1.42-.249.891 0 1.718.281 2.396.76L47.25 24.413a4.208 4.208 0 0 1 2.094 3.66 4.208 4.208 0 0 1-2.094 3.661L6.77 55.274a4.157 4.157 0 0 1-5.696-1.527A4.19 4.19 0 0 1 .54 51.21z"/>
        </g>
        <g fill="url(#a)" opacity=".06" transform="rotate(-135 -1.18 15.506)">
            <path d="M2.725 6.436v2.746c.157.221.25.491.25.784v5.2L13.33 9.56 2.975 3.953v1.7c0 .291-.093.562-.25.783zM.269 5.584V1.7c0-.583.368-1.08.885-1.27A1.35 1.35 0 0 1 2.33.483l14.485 7.842c.248.123.46.322.598.585.108.208.159.43.158.65.001.219-.05.441-.158.649-.138.263-.35.463-.598.585L2.33 18.636a1.352 1.352 0 0 1-1.74-.4c-.2-.235-.321-.54-.321-.874V14.89a1.277 1.277 0 0 1-.107-.514V6.097c0-.182.038-.356.107-.513z"/>
        </g>
    </g>
</svg>
