<?xml version="1.0" encoding="UTF-8"?>
<svg width="36px" height="36px" viewBox="0 0 36 36" version="1.1" xmlns="http://www.w3.org/2000/svg" xmlns:xlink="http://www.w3.org/1999/xlink">
    <!-- Generator: Sketch 53 (72520) - https://sketchapp.com -->
    <title>symbol - negative</title>
    <desc>Created with Sketch.</desc>
    <g id="Brand-Doodling" stroke="none" stroke-width="1" fill="none" fill-rule="evenodd">
        <g id="symbol---negative" transform="translate(18.405592, 17.405592) rotate(-45.000000) translate(-18.405592, -17.405592) translate(-6.094408, -1.094408)">
            <g id="Group-96-Copy-4" transform="translate(15.000000, 0.000000)" fill="#FFFFFF">
                <path d="M0.652771855,4.48401956 L7.61588486,4.48401956 C9.0501766,4.48401956 10.2128998,5.64674274 10.2128998,7.08103448 L10.2128998,7.08103448 C10.2128998,8.51532622 9.0501766,9.67804941 7.61588486,9.67804941 L0.652771855,9.67804941 C-0.781519883,9.67804941 -1.94424307,8.51532622 -1.94424307,7.08103448 L-1.94424307,7.08103448 C-1.94424307,5.64674274 -0.781519883,4.48401956 0.652771855,4.48401956 Z" id="Rectangle-Copy-73" transform="translate(4.134328, 7.081034) rotate(-270.000000) translate(-4.134328, -7.081034) "></path>
                <path d="M-3.32366493,23.3455138 L11.5923216,23.3455138 C13.0266134,23.3455138 14.1893366,24.508237 14.1893366,25.9425287 L14.1893366,25.9425287 C14.1893366,27.3768205 13.0266134,28.5395437 11.5923216,28.5395437 L-3.32366493,28.5395437 C-4.75795666,28.5395437 -5.92067985,27.3768205 -5.92067985,25.9425287 L-5.92067985,25.9425287 C-5.92067985,24.508237 -4.75795666,23.3455138 -3.32366493,23.3455138 Z" id="Rectangle-Copy-74" transform="translate(4.134328, 25.942529) rotate(-270.000000) translate(-4.134328, -25.942529) "></path>
                <path d="M2.10283241,8.32513323 L31.3798551,8.54792872 C32.8395401,8.5590368 34.0200893,9.73966424 34.0311007,11.19935 L34.0311007,11.19935 C34.0418988,12.6307735 32.8902544,13.7999251 31.4588309,13.8107232 C31.4457393,13.810822 31.4326472,13.8108215 31.4195556,13.8107219 L2.14253293,13.5879264 C0.682847917,13.5768183 -0.497701276,12.3961909 -0.508712595,10.9365051 L-0.508712595,10.9365051 C-0.519510713,9.50508166 0.632133688,8.33593005 2.06355717,8.32513193 C2.07664873,8.32503317 2.08974085,8.3250336 2.10283241,8.32513323 Z" id="Rectangle-Copy-77" transform="translate(16.761194, 11.067928) rotate(-330.000000) translate(-16.761194, -11.067928) "></path>
                <path d="M2.14253293,23.4329862 L31.4195556,23.2101907 C32.8509784,23.1992977 34.0202064,24.3508646 34.0310994,25.7822874 C34.031199,25.7953789 34.0311994,25.808471 34.0311007,25.8215626 L34.0311007,25.8215626 C34.0200893,27.2812484 32.8395401,28.4618758 31.3798551,28.4729839 L2.10283241,28.6957794 C0.671409647,28.7066724 -0.497818295,27.5551055 -0.508711293,26.1236827 C-0.508810919,26.1105911 -0.508811352,26.097499 -0.508712595,26.0844075 L-0.508712595,26.0844075 C-0.497701276,24.6247217 0.682847917,23.4440943 2.14253293,23.4329862 Z" id="Rectangle-Copy-78" transform="translate(16.761194, 25.952985) rotate(-30.000000) translate(-16.761194, -25.952985) "></path>
            </g>
            <path d="M11.8965885,15.8875205 L26.3720682,15.8875205 C27.8316779,15.8875205 29.0149254,17.070768 29.0149254,18.5303777 L29.0149254,18.5303777 C29.0149254,19.9899874 27.8316779,21.1732348 26.3720682,21.1732348 L11.8965885,21.1732348 C10.4369788,21.1732348 9.25373134,19.9899874 9.25373134,18.5303777 L9.25373134,18.5303777 C9.25373134,17.070768 10.4369788,15.8875205 11.8965885,15.8875205 Z" id="Rectangle-Copy-75" fill="#53B5FF" transform="translate(19.134328, 18.530378) rotate(-180.000000) translate(-19.134328, -18.530378) "></path>
            <path d="M2.64285714,15.8875205 L4.81982942,15.8875205 C6.27943912,15.8875205 7.46268657,17.070768 7.46268657,18.5303777 L7.46268657,18.5303777 C7.46268657,19.9899874 6.27943912,21.1732348 4.81982942,21.1732348 L2.64285714,21.1732348 C1.18324745,21.1732348 1.03651537e-13,19.9899874 1.03472786e-13,18.5303777 L1.03472786e-13,18.5303777 C1.03294035e-13,17.070768 1.18324745,15.8875205 2.64285714,15.8875205 Z" id="Rectangle-Copy-76" fill="#53B5FF" transform="translate(3.731343, 18.530378) rotate(-180.000000) translate(-3.731343, -18.530378) "></path>
        </g>
    </g>
</svg>