<svg xmlns="http://www.w3.org/2000/svg" xmlns:xlink="http://www.w3.org/1999/xlink" width="210" height="271" viewBox="0 0 210 271">
    <defs>
        <linearGradient id="a" x1="50%" x2="50%" y1="100%" y2="0%">
            <stop offset="0%" stop-color="#8B60ED"/>
            <stop offset="100%" stop-color="#B372BD"/>
        </linearGradient>
        <radialGradient id="b" cx="52.436%" cy="42.955%" r="218.844%" fx="52.436%" fy="42.955%" gradientTransform="matrix(-.16502 0 0 -.21136 .61 .52)">
            <stop offset="0%" stop-color="#172743"/>
            <stop offset="100%" stop-opacity="0"/>
        </radialGradient>
        <linearGradient id="c" x1="54.872%" x2="54.872%" y1="62.175%" y2="100%">
            <stop offset="0%" stop-color="#1A273E"/>
            <stop offset="100%" stop-color="#2E4469"/>
        </linearGradient>
        <linearGradient id="d" x1="30.414%" x2="50%" y1="31.624%" y2="68.376%">
            <stop offset="0%" stop-color="#5B79A2"/>
            <stop offset="100%" stop-color="#2E4469"/>
        </linearGradient>
        <linearGradient id="e" x1="98.741%" x2="1.259%" y1="48.741%" y2="48.741%">
            <stop offset="0%" stop-color="#21C8F6"/>
            <stop offset="100%" stop-color="#637BFF"/>
        </linearGradient>
        <linearGradient id="f" x1="34.594%" x2="60.398%" y1="40.953%" y2="55.694%">
            <stop offset="0%" stop-color="#5B79A2"/>
            <stop offset="100%" stop-color="#2E4469"/>
        </linearGradient>
        <linearGradient id="g" x1="60.345%" x2="68.087%" y1="47.191%" y2="54.023%">
            <stop offset="0%" stop-color="#5B79A2"/>
            <stop offset="100%" stop-color="#2E4469"/>
        </linearGradient>
        <linearGradient id="h" x1="12.8%" x2="107.421%" y1="46.721%" y2="53.239%">
            <stop offset="0%" stop-color="#587CB9"/>
            <stop offset="100%" stop-color="#2E4469" stop-opacity="0"/>
        </linearGradient>
        <linearGradient id="i" x1="4.47%" x2="68.52%" y1="46.97%" y2="53.03%">
            <stop offset="0%" stop-color="#405A7C"/>
            <stop offset="100%" stop-color="#20304C"/>
        </linearGradient>
        <linearGradient id="j" x1="75.874%" x2="92.229%" y1="34.347%" y2="96.254%">
            <stop offset="0%" stop-color="#5B79A2"/>
            <stop offset="100%" stop-color="#2E4469"/>
        </linearGradient>
        <linearGradient id="k" x1="8.301%" x2="112.118%" y1="0%" y2="133.334%">
            <stop offset="0%" stop-color="#5B79A2"/>
            <stop offset="100%" stop-color="#2E4469"/>
        </linearGradient>
        <linearGradient id="l" x1="125.306%" x2="26.535%" y1="116.086%" y2="5.536%">
            <stop offset="0%" stop-color="#76E1FF"/>
            <stop offset="100%" stop-color="#637BFF" stop-opacity="0"/>
        </linearGradient>
        <linearGradient id="m" x1="98.741%" x2="1.259%" y1="48.741%" y2="48.741%">
            <stop offset="0%" stop-color="#21C8F6"/>
            <stop offset="100%" stop-color="#637BFF"/>
        </linearGradient>
        <linearGradient id="n" x1="12.205%" x2="108.596%" y1="43.089%" y2="56.911%">
            <stop offset="0%" stop-color="#1A273E"/>
            <stop offset="100%" stop-color="#2E4469"/>
        </linearGradient>
        <path id="o" d="M20.3 9.642h36.72a6.79 6.79 0 0 1 6.79 6.79v28.26a6.79 6.79 0 0 1-4.38 6.348c-4.349 1.65-10.984 2.476-19.906 2.476-9.458 0-16.66-.928-21.608-2.783a6.79 6.79 0 0 1-4.406-6.357V16.432a6.79 6.79 0 0 1 6.79-6.79z"/>
        <linearGradient id="q" x1="153.548%" x2="24.379%" y1="133.259%" y2="16.174%">
            <stop offset="0%" stop-color="#76E1FF"/>
            <stop offset="100%" stop-color="#637BFF" stop-opacity="0"/>
        </linearGradient>
        <path id="p" d="M20.3 9.642h36.72a6.79 6.79 0 0 1 6.79 6.79v28.26a6.79 6.79 0 0 1-4.38 6.348c-4.349 1.65-10.984 2.476-19.906 2.476-9.458 0-16.66-.928-21.608-2.783a6.79 6.79 0 0 1-4.406-6.357V16.432a6.79 6.79 0 0 1 6.79-6.79z"/>
        <linearGradient id="r" x1="12.8%" x2="107.421%" y1="1.858%" y2="97.554%">
            <stop offset="0%" stop-color="#587CB9"/>
            <stop offset="100%" stop-color="#2E4469" stop-opacity="0"/>
        </linearGradient>
        <linearGradient id="v" x1="98.741%" x2="1.259%" y1="48.741%" y2="48.741%">
            <stop offset="0%" stop-color="#21C8F6"/>
            <stop offset="100%" stop-color="#637BFF"/>
        </linearGradient>
        <path id="u" d="M22.938 17.532h30.909a5.77 5.77 0 0 1 0 11.54H22.938a5.77 5.77 0 1 1 0-11.54z"/>
        <filter id="t" width="149.5%" height="282%" x="-24.7%" y="-65%" filterUnits="objectBoundingBox">
            <feOffset dy="3" in="SourceAlpha" result="shadowOffsetOuter1"/>
            <feGaussianBlur in="shadowOffsetOuter1" result="shadowBlurOuter1" stdDeviation="3"/>
            <feColorMatrix in="shadowBlurOuter1" values="0 0 0 0 0.0115609217 0 0 0 0 0.467910214 0 0 0 0 1 0 0 0 1 0"/>
        </filter>
        <linearGradient id="w" x1="98.741%" x2="1.259%" y1="48.741%" y2="48.741%">
            <stop offset="0%" stop-color="#21C8F6"/>
            <stop offset="100%" stop-color="#637BFF"/>
        </linearGradient>
        <linearGradient id="x" x1="98.741%" x2="1.259%" y1="48.741%" y2="48.741%">
            <stop offset="0%" stop-color="#21C8F6"/>
            <stop offset="100%" stop-color="#637BFF"/>
        </linearGradient>
        <filter id="y" width="145.9%" height="488.3%" x="-23%" y="-194.2%" filterUnits="objectBoundingBox">
            <feGaussianBlur in="SourceGraphic" stdDeviation="2.079"/>
        </filter>
        <linearGradient id="A" x1="50%" x2="50%" y1="0%" y2="97.483%">
            <stop offset="0%" stop-color="#21C8F6"/>
            <stop offset="100%" stop-color="#637BFF"/>
        </linearGradient>
        <path id="z" d="M49.326 46.704a8.823 8.823 0 0 0-2.612-6.208 8.816 8.816 0 0 0-6.176-2.583"/>
        <linearGradient id="B" x1="20.688%" x2="69.724%" y1="-161.748%" y2="17.569%">
            <stop offset="0%" stop-color="#5B79A2"/>
            <stop offset="100%" stop-color="#253B61"/>
        </linearGradient>
        <linearGradient id="C" x1="57.997%" x2="50%" y1="316.497%" y2="0%">
            <stop offset="0%" stop-color="#5B79A2"/>
            <stop offset="100%" stop-color="#2E4469"/>
        </linearGradient>
        <linearGradient id="D" x1="4.47%" x2="117.825%" y1="21.735%" y2="97.108%">
            <stop offset="0%" stop-color="#5B79A2"/>
            <stop offset="100%" stop-color="#2E4469"/>
        </linearGradient>
        <linearGradient id="E" x1="4.696%" x2="117.489%" y1="0%" y2="133.334%">
            <stop offset="0%" stop-color="#5B79A2"/>
            <stop offset="100%" stop-color="#2E4469"/>
        </linearGradient>
        <linearGradient id="F" x1="-24.308%" y1="-80.777%" y2="29.97%">
            <stop offset="0%" stop-color="#5B79A2"/>
            <stop offset="100%" stop-color="#2E4469"/>
        </linearGradient>
        <linearGradient id="G" x1="50%" x2="50%" y1="100%" y2="0%">
            <stop offset="0%" stop-color="#8B60ED"/>
            <stop offset="100%" stop-color="#B372BD"/>
        </linearGradient>
        <linearGradient id="H" x1="50%" x2="50%" y1="100%" y2="0%">
            <stop offset="0%" stop-color="#8B60ED"/>
            <stop offset="100%" stop-color="#B372BD"/>
        </linearGradient>
        <filter id="I" width="185.6%" height="185.4%" x="-42.8%" y="-42.7%" filterUnits="objectBoundingBox">
            <feGaussianBlur in="SourceGraphic" stdDeviation="1.078"/>
        </filter>
        <linearGradient id="J" x1="50%" x2="50%" y1="100%" y2="0%">
            <stop offset="0%" stop-color="#A987F7"/>
            <stop offset="100%" stop-color="#B372BD"/>
        </linearGradient>
        <linearGradient id="K" x1="12.393%" x2="108.306%" y1="0%" y2="100%">
            <stop offset="0%" stop-color="#80A4D5"/>
            <stop offset="100%" stop-color="#2E4469"/>
        </linearGradient>
        <linearGradient id="L" x1="58.037%" x2="50%" y1="66.739%" y2="46.859%">
            <stop offset="0%" stop-color="#5B79A2"/>
            <stop offset="100%" stop-color="#2E4469"/>
        </linearGradient>
        <linearGradient id="M" x1="4.47%" x2="117.825%" y1="46.859%" y2="55.234%">
            <stop offset="0%" stop-color="#5B79A2"/>
            <stop offset="100%" stop-color="#2E4469"/>
        </linearGradient>
        <linearGradient id="N" x1="12.205%" x2="108.596%" y1="47.371%" y2="52.629%">
            <stop offset="0%" stop-color="#80A4D5"/>
            <stop offset="100%" stop-color="#2E4469"/>
        </linearGradient>
        <linearGradient id="O" x1="50%" x2="50%" y1="100%" y2="0%">
            <stop offset="0%" stop-color="#8B60ED"/>
            <stop offset="100%" stop-color="#B372BD"/>
        </linearGradient>
        <linearGradient id="P" x1="50%" x2="50%" y1="100%" y2="0%">
            <stop offset="0%" stop-color="#8B60ED"/>
            <stop offset="100%" stop-color="#B372BD"/>
        </linearGradient>
        <linearGradient id="Q" x1="50%" x2="50%" y1="100%" y2="0%">
            <stop offset="0%" stop-color="#8B60ED" stop-opacity=".142"/>
            <stop offset="100%" stop-color="#B372BD"/>
        </linearGradient>
    </defs>
    <g fill="none" fill-rule="evenodd" transform="translate(-24 10)">
        <path fill="#FFF" d="M51.577 163.767l38.653 6.122c8.145 1.29 13.703 8.939 12.413 17.085-1.29 8.145-8.94 13.703-17.085 12.413l-38.653-6.122c-8.146-1.29-13.703-8.94-12.413-17.085 1.29-8.146 8.94-13.703 17.085-12.413z"/>
        <path fill="url(#a)" d="M29.955 158.427l100.643-58.368L29.955 41.692v116.735zM.09 182.868V17.251a14.974 14.974 0 0 1 1.917-9.088c4.107-7.147 13.23-9.61 20.377-5.503l.05.03 145.318 84.276c4.83 2.801 7.522 7.88 7.498 13.093.024 5.213-2.667 10.292-7.498 13.094L22.434 197.429c-7.13 4.136-16.263 1.708-20.398-5.423l-.03-.05a14.974 14.974 0 0 1-1.916-9.088z" transform="rotate(-81 127.493 77.037)"/>
        <g style="mix-blend-mode:luminosity" transform="rotate(-15 381.55 43.378)">
            <ellipse cx="80.254" cy="149.655" fill="url(#b)" opacity=".65" rx="78.489" ry="12.952" transform="rotate(13 80.254 149.655)"/>
            <path fill="url(#c)" d="M41.188 75.73h79.657a8.73 8.73 0 0 1 8.621 10.103l-6.312 39.601a17.46 17.46 0 0 1-17.242 14.711h-49.79a17.46 17.46 0 0 1-17.242-14.71l-6.313-39.602a8.73 8.73 0 0 1 8.621-10.104z"/>
            <path fill="url(#d)" d="M38.465 71.566h85.104a8.73 8.73 0 0 1 8.597 10.245l-6.514 36.965a17.46 17.46 0 0 1-17.194 14.43H53.576a17.46 17.46 0 0 1-17.195-14.43l-6.513-36.965a8.73 8.73 0 0 1 8.597-10.245z"/>
            <path fill="#243552" d="M55.818 102.793h49.547a1.327 1.327 0 1 1 0 2.653H55.817a1.327 1.327 0 0 1 0-2.653z"/>
            <path fill="url(#e)" d="M55.818 107.65h49.547a1.327 1.327 0 1 1 0 2.653l-25.168.001h-24.38a1.327 1.327 0 1 1 0-2.653z"/>
            <path fill="#243552" d="M56.513 112.508h49.547a1.327 1.327 0 1 1 0 2.653H56.512a1.327 1.327 0 1 1 0-2.653zM56.513 117.366h49.547a1.327 1.327 0 0 1 0 2.653H56.512a1.327 1.327 0 0 1 0-2.653z"/>
            <path fill="url(#f)" d="M52.985 72.26h57.142a8.73 8.73 0 0 1 8.323 11.364l-.849 2.682a17.46 17.46 0 0 1-16.645 12.19h-38.8a17.46 17.46 0 0 1-16.645-12.19l-.85-2.682a8.73 8.73 0 0 1 8.324-11.364z"/>
            <path fill="url(#g)" d="M39.18 72.26h84.375a8.73 8.73 0 0 1 8.009 12.204l-1.528 3.522a17.46 17.46 0 0 1-16.017 10.51H48.716A17.46 17.46 0 0 1 32.7 87.987l-1.528-3.522A8.73 8.73 0 0 1 39.18 72.26z"/>
            <path fill="url(#h)" d="M38.904 72.26h84.375-84.375zm92.66 5.97a8.73 8.73 0 0 1-.276 6.234l-1.528 3.522a17.46 17.46 0 0 1-16.018 10.51H48.44a17.46 17.46 0 0 1-16.017-10.51l-1.528-3.522a8.697 8.697 0 0 1-.276-6.226 7.537 7.537 0 0 0 .673 5.058l.814 1.58a17.46 17.46 0 0 0 15.518 9.457h66.935a17.46 17.46 0 0 0 15.518-9.458l.814-1.579a7.568 7.568 0 0 0 .672-5.066z"/>
            <path fill="url(#i)" d="M70.016 75.73H93.74a8.73 8.73 0 0 1 5.743 2.154l3.88 3.39a3.163 3.163 0 0 1-2.08 5.544h-38.81a3.163 3.163 0 0 1-2.08-5.544l3.88-3.39a8.73 8.73 0 0 1 5.743-2.155z"/>
            <path fill="url(#j)" d="M32.21 51.818H46.95a6.79 6.79 0 0 1 6.79 6.79v16.57a3.88 3.88 0 0 1-3.88 3.88H29.3a3.88 3.88 0 0 1-3.88-3.88v-16.57a6.79 6.79 0 0 1 6.79-6.79z" transform="rotate(5 20.281 545.995)"/>
            <g transform="rotate(8 18.416 369.263)">
                <path fill="url(#k)" d="M21.972 0h32.921c8.036 0 14.55 6.514 14.55 14.55v32.797c0 9.643-7.817 17.46-17.46 17.46h-27.1c-9.643 0-17.46-7.817-17.46-17.46V14.55C7.423 6.514 13.937 0 21.973 0z"/>
                <path stroke="url(#l)" stroke-width="1.048" d="M21.972.524c-7.746 0-14.025 6.28-14.025 14.026v32.797c0 9.353 7.582 16.936 16.935 16.936h27.101c9.354 0 16.936-7.583 16.936-16.936V14.55c0-7.747-6.28-14.026-14.026-14.026h-32.92z"/>
                <ellipse cx="20.333" cy="5.544" fill="url(#m)" rx="1.953" ry="1.928"/>
                <path fill="url(#n)" d="M68.293 43.105v4.821c0 9.643-7.817 17.46-17.46 17.46H26.1c-9.643 0-17.46-7.817-17.46-17.46v-4.82c0 9.642 7.817 17.459 17.46 17.459h24.733c9.643 0 17.46-7.817 17.46-17.46z"/>
                <use fill="#243552" xlink:href="#o"/>
                <mask id="s" fill="#fff">
                    <use xlink:href="#p"/>
                </mask>
                <path stroke="url(#q)" stroke-width="1.048" d="M20.3 10.166a6.266 6.266 0 0 0-6.266 6.266v27.944c0 2.612 1.62 4.95 4.066 5.867 4.878 1.829 12.023 2.749 21.424 2.749 8.864 0 15.442-.818 19.72-2.442a6.266 6.266 0 0 0 4.043-5.858v-28.26a6.266 6.266 0 0 0-6.266-6.266H20.3z"/>
                <ellipse cx="27.67" cy="17.839" fill="url(#r)" mask="url(#s)" rx="27.833" ry="27.481"/>
                <use fill="#000" filter="url(#t)" xlink:href="#u"/>
                <use fill="url(#v)" xlink:href="#u"/>
                <g transform="rotate(-4 200.014 .585)">
                    <ellipse cx="18.685" cy="14.263" fill="url(#w)" opacity=".398" rx="13.702" ry="13.643"/>
                    <ellipse cx="54.186" cy="14.263" fill="url(#w)" opacity=".398" rx="13.702" ry="13.643"/>
                    <path fill="#243552" stroke="#243552" stroke-width=".97" d="M53.891 27.163c-7.002 0-12.678-5.637-12.678-12.59s5.676-12.59 12.678-12.59c7.002 0 12.679 5.637 12.679 12.59s-5.677 12.59-12.679 12.59zm-35.402 0c-7.002 0-12.678-5.637-12.678-12.59s5.676-12.59 12.678-12.59c7.002 0 12.678 5.637 12.678 12.59s-5.676 12.59-12.678 12.59zM67.29 6.85c-1.06-1.214-3.07-2.786-4.274-3.684-.31-.246-.627-.48-.957-.7l-.021-.016v.002A14.678 14.678 0 0 0 53.891 0a14.682 14.682 0 0 0-10.395 4.287c-1.286 1.193-2.395 2.5-3.542 3.78-1.452 1.623-2.311.827-3.764.827-1.452 0-2.312.796-3.764-.826-1.147-1.28-2.256-2.588-3.542-3.781A14.787 14.787 0 0 0 18.444 0c-3.015 0-5.996.904-8.193 2.453V2.45l.023.015c-.33.22-.626.455-.935.7-1.205.9-3.268 2.471-4.327 3.685C3.44 8.653 0 8.774 0 8.774V12.5s2.058-.12 2.724.66c.393.461.817 2.681 1.51 5.004.21.828.51 1.625.858 2.39.324.76.703 1.463 1.136 2.04l.004-.003a14.69 14.69 0 0 0 12.255 6.554 14.682 14.682 0 0 0 13.37-8.563l.011-.014.034-.056c1.054-1.776 2.115-6.638 2.594-7.411.484-.782 1.694-.842 1.694-.842s1.21.06 1.694.842c.48.773 1.54 5.635 2.594 7.41l.034.057.01.014a14.68 14.68 0 0 0 13.37 8.563c5.12 0 9.626-2.606 12.252-6.554v.004c.434-.578.805-1.282 1.129-2.041.347-.764.632-1.562.843-2.39.692-2.323 1.081-4.543 1.474-5.003.666-.782 2.658-.661 2.658-.661V8.774s-3.384-.12-4.957-1.923z"/>
                </g>
                <path fill="url(#x)" d="M18.021 2.082L7.641 21.859l8.232 5.205 10.49-22.206zM53.45 2.082L43.07 21.859l8.232 5.205 10.49-22.206z" opacity=".309" transform="rotate(-4 200.014 .585)"/>
                <path fill="#00FFEC" d="M26.416 21.695H50.37a1.606 1.606 0 1 1 0 3.212H26.417a1.606 1.606 0 0 1 0-3.212z" filter="url(#y)"/>
                <g stroke-linecap="round" transform="rotate(126 44.932 42.309)">
                    <use stroke="#2E4469" stroke-width="5.82" xlink:href="#z"/>
                    <use stroke="url(#A)" stroke-width="1.455" xlink:href="#z"/>
                </g>
                <path fill="#243552" d="M45.075 6.846h-1.57a.775.775 0 0 1-.778-.771c0-.426.349-.772.778-.772h1.57c.43 0 .778.346.778.772a.775.775 0 0 1-.778.771zM48.004 4.725h-1.569a.775.775 0 0 1-.778-.772c0-.426.349-.771.778-.771h1.57c.43 0 .777.345.777.771a.775.775 0 0 1-.778.772zM56.011 6.846h-8.594a.777.777 0 0 1-.783-.771c0-.426.35-.772.783-.772h8.59c.433 0 .784.346.784.772 0 .426-.351.771-.784.771h.004zM58.906 4.725h-8.528c-.45 0-.814-.346-.814-.772 0-.426.364-.771.814-.771h8.528c.45 0 .814.345.814.771 0 .426-.364.772-.814.772z"/>
            </g>
        </g>
        <g style="mix-blend-mode:luminosity" transform="rotate(4 -293.924 879.643)">
            <g fill-rule="nonzero">
                <path fill="url(#B)" stroke="#2E4469" stroke-width=".55" d="M7.783.27H1.928C1.012.27.27 1.02.27 1.947v8.925a4 4 0 0 0 4 4h1.17a4 4 0 0 0 4-4V1.947C9.442 1.021 8.7.27 7.784.27z" transform="rotate(-51 14.885 -8.306)"/>
                <path fill="#FFF" d="M18.915 2.32c-.393.06-.765.26-1.034.592l-3.685 4.55c-.576.712-.46 1.761.26 2.344l9.204 7.453-.34.42-10.045-8.135a1.667 1.667 0 0 1-.26-2.343l3.686-4.55a1.665 1.665 0 0 1 2.214-.33z" opacity=".1"/>
            </g>
            <path fill="url(#C)" fill-rule="nonzero" d="M29.98 11.949h-5.856c-.916 0-1.658.473-1.658 1.056v8.138h9.171v-8.138c0-.583-.742-1.056-1.658-1.056z" opacity=".426" transform="rotate(-180 27.052 16.546)"/>
            <path fill="url(#D)" fill-rule="nonzero" d="M20.848 17.898h12.947v9.735H20.848z"/>
            <ellipse cx="27.052" cy="41.423" fill="url(#E)" fill-rule="nonzero" rx="18.072" ry="18.117"/>
            <g transform="translate(11.676 32.67)">
                <path fill="url(#F)" fill-rule="nonzero" stroke="#2E4469" stroke-width=".55" d="M2.12.91A15.404 15.404 0 0 0 0 8.734c0 8.523 6.884 15.433 15.375 15.433 8.492 0 15.375-6.91 15.375-15.433 0-2.855-.773-5.528-2.12-7.822-1.262-1.022-4.2-1.184-8.811-.487-3.232.489-6.87 1.83-9.31 2.225-3.217.521-6.013-.058-8.39-1.738z"/>
                <ellipse cx="8.362" cy="14.161" fill="url(#G)" fill-rule="nonzero" stroke="#2E4469" stroke-width=".55" rx="3.507" ry="3.515"/>
                <ellipse cx="12.947" cy="19.839" fill="url(#H)" fill-rule="nonzero" stroke="#2E4469" stroke-width=".55" rx="1.618" ry="1.622"/>
                <ellipse cx="12.363" cy="6.274" fill="#BC5AEC" filter="url(#I)" rx="3.776" ry="3.786"/>
                <ellipse cx="13.08" cy="6.21" fill="url(#J)" rx="2.428" ry="2.434"/>
                <path fill="#FFF" fill-opacity=".2" d="M11.611 8.102a2.402 2.402 0 0 1-.959-1.922 2.4 2.4 0 0 1 2.398-2.404c.784 0 1.48.378 1.918.961-.4-.302-.899-.48-1.439-.48a2.4 2.4 0 0 0-2.397 2.403c0 .541.178 1.04.48 1.442z"/>
            </g>
            <path fill="url(#K)" fill-rule="nonzero" d="M14.545 54.502a18.086 18.086 0 0 1-5.566-13.079c0-10.005 8.091-18.117 18.073-18.117 5.127 0 9.756 2.141 13.046 5.58a17.988 17.988 0 0 0-12.507-5.04c-9.981 0-18.072 8.112-18.072 18.118a18.08 18.08 0 0 0 5.026 12.538z"/>
            <path fill="url(#L)" fill-rule="nonzero" d="M20.848 17.898h12.947v3.245H20.848z"/>
            <path fill="url(#M)" fill-rule="nonzero" d="M35.292 13.03H19.35c-1.557 0-2.82 1.211-2.82 2.705 0 1.493 1.263 2.704 2.82 2.704h15.94c1.558 0 2.82-1.21 2.82-2.704 0-1.494-1.262-2.704-2.82-2.704z"/>
            <path fill="url(#N)" fill-rule="nonzero" d="M37.579 14.154a2.883 2.883 0 0 0-1.748-.583h-15.94c-1.558 0-2.82 1.211-2.82 2.705 0 .59.197 1.136.532 1.58a2.66 2.66 0 0 1-1.071-2.121c0-1.494 1.262-2.704 2.819-2.704h15.94c.942 0 1.776.442 2.288 1.123z"/>
        </g>
        <path fill="url(#O)" d="M96.99 23.636c1.933 0 5.006-3.66 5.006-5.56 0-1.9-1.567-3.44-3.5-3.44s-3.5 1.54-3.5 3.44.06 5.56 1.994 5.56z"/>
        <ellipse cx="91.895" cy="6.661" fill="url(#P)" rx="4.422" ry="5.661" transform="rotate(-5 91.895 6.661)"/>
        <path fill="url(#Q)" d="M88.87 37.636c1.968 0 7.126-4.738 7.126-6.61 0-1.872-1.595-3.39-3.563-3.39-1.967 0-3.563 1.518-3.563 3.39s-1.967 6.61 0 6.61z"/>
    </g>
</svg>
