<svg xmlns="http://www.w3.org/2000/svg" xmlns:xlink="http://www.w3.org/1999/xlink" width="210" height="271" viewBox="0 0 210 271">
    <defs>
        <linearGradient id="a" x1="50%" x2="50%" y1="11.35%" y2="111.35%">
            <stop offset="0%" stop-color="#6EDCC4"/>
            <stop offset="100%" stop-color="#1AAB8B"/>
        </linearGradient>
        <linearGradient id="b" x1="50%" x2="196.299%" y1="33.67%" y2="83.301%">
            <stop offset="0%" stop-color="#6EDCC4"/>
            <stop offset="100%" stop-color="#1AAB8B"/>
        </linearGradient>
        <radialGradient id="c" cx="52.436%" cy="42.955%" r="218.844%" fx="52.436%" fy="42.955%" gradientTransform="matrix(-.16502 0 0 -.21136 .61 .52)">
            <stop offset="0%" stop-color="#172743"/>
            <stop offset="100%" stop-opacity="0"/>
        </radialGradient>
        <linearGradient id="d" x1="54.872%" x2="54.872%" y1="62.175%" y2="100%">
            <stop offset="0%" stop-color="#1A273E"/>
            <stop offset="100%" stop-color="#2E4469"/>
        </linearGradient>
        <linearGradient id="e" x1="30.414%" x2="50%" y1="31.624%" y2="68.376%">
            <stop offset="0%" stop-color="#5B79A2"/>
            <stop offset="100%" stop-color="#2E4469"/>
        </linearGradient>
        <linearGradient id="f" x1="98.741%" x2="1.259%" y1="48.741%" y2="48.741%">
            <stop offset="0%" stop-color="#21C8F6"/>
            <stop offset="100%" stop-color="#637BFF"/>
        </linearGradient>
        <linearGradient id="g" x1="34.594%" x2="60.398%" y1="40.953%" y2="55.694%">
            <stop offset="0%" stop-color="#5B79A2"/>
            <stop offset="100%" stop-color="#2E4469"/>
        </linearGradient>
        <linearGradient id="h" x1="60.345%" x2="68.087%" y1="47.191%" y2="54.023%">
            <stop offset="0%" stop-color="#5B79A2"/>
            <stop offset="100%" stop-color="#2E4469"/>
        </linearGradient>
        <linearGradient id="i" x1="12.8%" x2="107.421%" y1="46.721%" y2="53.239%">
            <stop offset="0%" stop-color="#587CB9"/>
            <stop offset="100%" stop-color="#2E4469" stop-opacity="0"/>
        </linearGradient>
        <linearGradient id="j" x1="4.47%" x2="68.52%" y1="46.97%" y2="53.03%">
            <stop offset="0%" stop-color="#405A7C"/>
            <stop offset="100%" stop-color="#20304C"/>
        </linearGradient>
        <linearGradient id="k" x1="75.874%" x2="92.229%" y1="34.347%" y2="96.254%">
            <stop offset="0%" stop-color="#5B79A2"/>
            <stop offset="100%" stop-color="#2E4469"/>
        </linearGradient>
        <linearGradient id="l" x1="8.301%" x2="112.118%" y1="0%" y2="133.334%">
            <stop offset="0%" stop-color="#5B79A2"/>
            <stop offset="100%" stop-color="#2E4469"/>
        </linearGradient>
        <linearGradient id="m" x1="125.306%" x2="26.535%" y1="116.086%" y2="5.536%">
            <stop offset="0%" stop-color="#76E1FF"/>
            <stop offset="100%" stop-color="#637BFF" stop-opacity="0"/>
        </linearGradient>
        <linearGradient id="n" x1="98.741%" x2="1.259%" y1="48.741%" y2="48.741%">
            <stop offset="0%" stop-color="#21C8F6"/>
            <stop offset="100%" stop-color="#637BFF"/>
        </linearGradient>
        <linearGradient id="o" x1="12.205%" x2="108.596%" y1="43.089%" y2="56.911%">
            <stop offset="0%" stop-color="#1A273E"/>
            <stop offset="100%" stop-color="#2E4469"/>
        </linearGradient>
        <path id="p" d="M13.3 9.642h36.72a6.79 6.79 0 0 1 6.79 6.79v28.26a6.79 6.79 0 0 1-4.38 6.348c-4.349 1.65-10.984 2.476-19.906 2.476-9.458 0-16.66-.928-21.608-2.783a6.79 6.79 0 0 1-4.406-6.357V16.432a6.79 6.79 0 0 1 6.79-6.79z"/>
        <linearGradient id="t" x1="98.741%" x2="1.259%" y1="48.741%" y2="48.741%">
            <stop offset="0%" stop-color="#21C8F6"/>
            <stop offset="100%" stop-color="#637BFF"/>
        </linearGradient>
        <path id="s" d="M40.552 18.682v2.088c0 .86-.697 1.556-1.556 1.556h-.089a1.555 1.555 0 0 1-1.555-1.556v-4.396c0-.615.357-1.146.874-1.399a1.556 1.556 0 0 1 1.666-.152l16.883 8.715a1.556 1.556 0 0 1 1.78.752l.022.04a1.526 1.526 0 0 1-.639 2.09l-16.723 8.633c-.284.366-.729.601-1.229.601h-.089a1.555 1.555 0 0 1-1.555-1.555v-6.703h-3.024a1.553 1.553 0 1 1 0-3.106h4.295c.092-.017.187-.026.284-.026h.09c.097 0 .192.009.284.026h3.48a1.553 1.553 0 0 1 0 3.106h-2.21v3.97l11.79-6.087-12.78-6.597z"/>
        <filter id="r" width="179.9%" height="195.3%" x="-40%" y="-38.1%" filterUnits="objectBoundingBox">
            <feOffset dy="2" in="SourceAlpha" result="shadowOffsetOuter1"/>
            <feGaussianBlur in="shadowOffsetOuter1" result="shadowBlurOuter1" stdDeviation="3"/>
            <feColorMatrix in="shadowBlurOuter1" values="0 0 0 0 0.0115609217 0 0 0 0 0.467910214 0 0 0 0 1 0 0 0 1 0"/>
        </filter>
        <linearGradient id="u" x1="13.566%" x2="80.007%" y1="7.612%" y2="92.43%">
            <stop offset="0%" stop-color="#86A4D6"/>
            <stop offset="100%" stop-color="#2E4469" stop-opacity="0"/>
        </linearGradient>
        <linearGradient id="x" x1="98.741%" x2="1.259%" y1="48.741%" y2="48.741%">
            <stop offset="0%" stop-color="#21C8F6"/>
            <stop offset="100%" stop-color="#637BFF"/>
        </linearGradient>
        <path id="w" d="M15.86 23.758c.932-2.132 3.048-3.198 6.347-3.197 3.345 0 5.418 1.096 6.219 3.287a3 3 0 0 1 .182 1.03v2.743a2.541 2.541 0 0 1-3.064 2.487c-1.94-.408-3.197-.612-3.77-.612-.538 0-1.582.18-3.135.537a2.475 2.475 0 0 1-3.031-2.412v-2.66a3 3 0 0 1 .251-1.203z"/>
        <filter id="v" width="276.9%" height="339.5%" x="-88.5%" y="-98.9%" filterUnits="objectBoundingBox">
            <feOffset dy="2" in="SourceAlpha" result="shadowOffsetOuter1"/>
            <feGaussianBlur in="shadowOffsetOuter1" result="shadowBlurOuter1" stdDeviation="3.5"/>
            <feColorMatrix in="shadowBlurOuter1" values="0 0 0 0 0.0115609217 0 0 0 0 0.467910214 0 0 0 0 1 0 0 0 1 0"/>
        </filter>
        <linearGradient id="z" x1="153.548%" x2="24.379%" y1="133.259%" y2="16.174%">
            <stop offset="0%" stop-color="#76E1FF"/>
            <stop offset="100%" stop-color="#637BFF" stop-opacity="0"/>
        </linearGradient>
        <path id="y" d="M13.3 9.642h36.72a6.79 6.79 0 0 1 6.79 6.79v28.26a6.79 6.79 0 0 1-4.38 6.348c-4.349 1.65-10.984 2.476-19.906 2.476-9.458 0-16.66-.928-21.608-2.783a6.79 6.79 0 0 1-4.406-6.357V16.432a6.79 6.79 0 0 1 6.79-6.79z"/>
        <linearGradient id="B" x1="50%" x2="50%" y1="0%" y2="97.483%">
            <stop offset="0%" stop-color="#21C8F6"/>
            <stop offset="100%" stop-color="#637BFF"/>
        </linearGradient>
        <path id="A" d="M36.349 46.181a8.823 8.823 0 0 0-2.612-6.208 8.816 8.816 0 0 0-6.176-2.582"/>
    </defs>
    <g fill="none" fill-rule="evenodd" transform="translate(0 30)">
        <path fill="url(#a)" d="M131.697 100.119L30.952 41.692v116.541l6.87-4.022c7.094-4.152 16.212-1.768 20.364 5.326l.05.085c4.141 7.183 1.708 16.362-5.447 20.55l-29.372 17.195c-7.094 4.153-16.211 1.768-20.364-5.326a15.017 15.017 0 0 1-1.967-9.351V17.25a14.974 14.974 0 0 1 1.917-9.087c4.108-7.147 13.231-9.61 20.378-5.503l.05.03 145.318 84.276c4.514 2.618 7.16 7.225 7.467 12.072.414 5.565-2.294 11.14-7.434 14.14l-48.401 28.234c-7.11 4.147-16.236 1.745-20.383-5.364a14.888 14.888 0 0 1-.04-.069c-4.138-7.181-1.698-16.356 5.461-20.532l26.278-15.328z" transform="rotate(176 91.895 103.122)"/>
        <rect width="20" height="13" x="50.18" y="30.516" fill="url(#b)" rx="6.5" transform="rotate(-150 60.18 37.016)"/>
        <rect width="20" height="13" x="66.492" y="6.29" fill="url(#b)" rx="6.5" transform="rotate(-121 76.492 12.79)"/>
        <rect width="20" height="13" x="96.045" y="9.033" fill="url(#b)" rx="6.5" transform="rotate(-60 106.045 15.533)"/>
        <g style="mix-blend-mode:luminosity" transform="rotate(-1 2237.083 -1756.806)">
            <ellipse cx="78.489" cy="137.033" fill="url(#c)" opacity=".65" rx="78.489" ry="12.952"/>
            <path fill="url(#d)" d="M40.188 72.73h79.657a8.73 8.73 0 0 1 8.621 10.103l-6.312 39.601a17.46 17.46 0 0 1-17.242 14.711h-49.79a17.46 17.46 0 0 1-17.242-14.71l-6.313-39.602a8.73 8.73 0 0 1 8.621-10.104z"/>
            <path fill="url(#e)" d="M37.465 68.566h85.104a8.73 8.73 0 0 1 8.597 10.245l-6.514 36.965a17.46 17.46 0 0 1-17.194 14.43H52.576a17.46 17.46 0 0 1-17.195-14.43l-6.513-36.965a8.73 8.73 0 0 1 8.597-10.245z"/>
            <path fill="#243552" d="M54.818 99.793h49.547a1.327 1.327 0 1 1 0 2.653H54.817a1.327 1.327 0 0 1 0-2.653z"/>
            <path fill="url(#f)" d="M54.818 104.65h49.547a1.327 1.327 0 1 1 0 2.653l-25.168.001h-24.38a1.327 1.327 0 1 1 0-2.653z"/>
            <path fill="#243552" d="M55.513 109.508h49.547a1.327 1.327 0 1 1 0 2.653H55.512a1.327 1.327 0 1 1 0-2.653zM55.513 114.366h49.547a1.327 1.327 0 0 1 0 2.653H55.512a1.327 1.327 0 0 1 0-2.653z"/>
            <path fill="url(#g)" d="M51.985 69.26h57.142a8.73 8.73 0 0 1 8.323 11.364l-.849 2.682a17.46 17.46 0 0 1-16.645 12.19h-38.8a17.46 17.46 0 0 1-16.645-12.19l-.85-2.682a8.73 8.73 0 0 1 8.324-11.364z"/>
            <path fill="url(#h)" d="M38.18 69.26h84.375a8.73 8.73 0 0 1 8.009 12.204l-1.528 3.522a17.46 17.46 0 0 1-16.017 10.51H47.716A17.46 17.46 0 0 1 31.7 84.987l-1.528-3.522A8.73 8.73 0 0 1 38.18 69.26z"/>
            <path fill="url(#i)" d="M37.904 69.26h84.375-84.375zm92.66 5.97a8.73 8.73 0 0 1-.276 6.234l-1.528 3.522a17.46 17.46 0 0 1-16.018 10.51H47.44a17.46 17.46 0 0 1-16.017-10.51l-1.528-3.522a8.697 8.697 0 0 1-.276-6.226 7.537 7.537 0 0 0 .673 5.058l.814 1.58a17.46 17.46 0 0 0 15.518 9.457h66.935a17.46 17.46 0 0 0 15.518-9.458l.814-1.579a7.568 7.568 0 0 0 .672-5.066z"/>
            <path fill="url(#j)" d="M69.016 72.73H92.74a8.73 8.73 0 0 1 5.743 2.154l3.88 3.39a3.163 3.163 0 0 1-2.08 5.544h-38.81a3.163 3.163 0 0 1-2.08-5.544l3.88-3.39a8.73 8.73 0 0 1 5.743-2.155z"/>
            <path fill="url(#k)" d="M29.21 51.818H43.95a6.79 6.79 0 0 1 6.79 6.79v16.57a3.88 3.88 0 0 1-3.88 3.88H26.3a3.88 3.88 0 0 1-3.88-3.88v-16.57a6.79 6.79 0 0 1 6.79-6.79z" transform="translate(44.732)"/>
            <g transform="rotate(-4 87.435 -642.238)">
                <path fill="url(#l)" d="M14.972 0h32.921c8.036 0 14.55 6.514 14.55 14.55v32.797c0 9.643-7.817 17.46-17.46 17.46h-27.1c-9.643 0-17.46-7.817-17.46-17.46V14.55C.423 6.514 6.937 0 14.973 0z"/>
                <path stroke="url(#m)" stroke-width="1.048" d="M14.972.524C7.226.524.947 6.804.947 14.55v32.797c0 9.353 7.582 16.936 16.935 16.936h27.101c9.354 0 16.936-7.583 16.936-16.936V14.55c0-7.747-6.28-14.026-14.026-14.026h-32.92z"/>
                <ellipse cx="13.333" cy="5.544" fill="url(#n)" rx="1.953" ry="1.928"/>
                <path fill="url(#o)" d="M61.293 43.105v4.821c0 9.643-7.817 17.46-17.46 17.46H19.1c-9.643 0-17.46-7.817-17.46-17.46v-4.82c0 9.642 7.817 17.459 17.46 17.459h24.733c9.643 0 17.46-7.817 17.46-17.46z"/>
                <mask id="q" fill="#fff">
                    <use xlink:href="#p"/>
                </mask>
                <use fill="#243552" xlink:href="#p"/>
                <g mask="url(#q)">
                    <use fill="#000" filter="url(#r)" xlink:href="#s"/>
                    <use fill="url(#t)" xlink:href="#s"/>
                </g>
                <ellipse cx="14.168" cy="10.589" fill="url(#u)" mask="url(#q)" rx="27.833" ry="27.481"/>
                <g mask="url(#q)">
                    <use fill="#000" filter="url(#v)" xlink:href="#w"/>
                    <use fill="url(#x)" xlink:href="#w"/>
                </g>
                <path stroke="url(#z)" stroke-width="1.048" d="M13.3 10.166a6.266 6.266 0 0 0-6.266 6.266v27.944c0 2.612 1.62 4.95 4.066 5.867 4.878 1.829 12.023 2.749 21.424 2.749 8.864 0 15.442-.818 19.72-2.442a6.266 6.266 0 0 0 4.043-5.858v-28.26a6.266 6.266 0 0 0-6.266-6.266H13.3z"/>
                <g stroke-linecap="round" transform="rotate(130 31.955 41.786)">
                    <use stroke="#4B89FF" stroke-width="4" xlink:href="#A"/>
                    <use stroke="url(#B)" stroke-width="1.455" xlink:href="#A"/>
                </g>
                <path fill="#243552" d="M38.075 6.846h-1.57a.775.775 0 0 1-.778-.771c0-.426.349-.772.778-.772h1.57c.43 0 .778.346.778.772a.775.775 0 0 1-.778.771zM41.004 4.725h-1.569a.775.775 0 0 1-.778-.772c0-.426.349-.771.778-.771h1.57c.43 0 .777.345.777.771a.775.775 0 0 1-.778.772zM49.011 6.846h-8.594a.777.777 0 0 1-.783-.771c0-.426.35-.772.783-.772h8.59c.433 0 .784.346.784.772 0 .426-.351.771-.784.771h.004zM51.906 4.725h-8.528c-.45 0-.814-.346-.814-.772 0-.426.364-.771.814-.771h8.528c.45 0 .814.345.814.771 0 .426-.364.772-.814.772z"/>
            </g>
        </g>
    </g>
</svg>
