<svg xmlns="http://www.w3.org/2000/svg" xmlns:xlink="http://www.w3.org/1999/xlink" width="210" height="271" viewBox="0 0 210 271">
    <defs>
        <linearGradient id="a" x1="50%" x2="50%" y1="100%" y2="1.467%">
            <stop offset="0%" stop-color="#F19A1A"/>
            <stop offset="100%" stop-color="#FFC73C"/>
        </linearGradient>
        <filter id="b" width="150%" height="220%" x="-25%" y="-60%" filterUnits="objectBoundingBox">
            <feGaussianBlur in="SourceGraphic" stdDeviation="2"/>
        </filter>
        <filter id="c" width="146.2%" height="250%" x="-23.1%" y="-75%" filterUnits="objectBoundingBox">
            <feGaussianBlur in="SourceGraphic" stdDeviation="2"/>
        </filter>
        <radialGradient id="d" cx="52.436%" cy="42.955%" r="218.844%" fx="52.436%" fy="42.955%" gradientTransform="matrix(-.16502 0 0 -.21136 .61 .52)">
            <stop offset="0%" stop-color="#172743"/>
            <stop offset="100%" stop-opacity="0"/>
        </radialGradient>
        <radialGradient id="e" cx="52.436%" cy="42.955%" r="105.951%" fx="52.436%" fy="42.955%" gradientTransform="matrix(-.34085 0 0 -.21136 .703 .52)">
            <stop offset="0%" stop-color="#172743"/>
            <stop offset="100%" stop-opacity="0"/>
        </radialGradient>
        <linearGradient id="f" x1="54.872%" x2="54.872%" y1="62.175%" y2="100%">
            <stop offset="0%" stop-color="#1A273E"/>
            <stop offset="100%" stop-color="#2E4469"/>
        </linearGradient>
        <linearGradient id="g" x1="30.414%" x2="50%" y1="31.624%" y2="68.376%">
            <stop offset="0%" stop-color="#5B79A2"/>
            <stop offset="100%" stop-color="#2E4469"/>
        </linearGradient>
        <linearGradient id="h" x1="98.741%" x2="1.259%" y1="48.741%" y2="48.741%">
            <stop offset="0%" stop-color="#21C8F6"/>
            <stop offset="100%" stop-color="#637BFF"/>
        </linearGradient>
        <linearGradient id="i" x1="34.594%" x2="60.398%" y1="40.953%" y2="55.694%">
            <stop offset="0%" stop-color="#5B79A2"/>
            <stop offset="100%" stop-color="#2E4469"/>
        </linearGradient>
        <linearGradient id="j" x1="60.345%" x2="68.087%" y1="47.191%" y2="54.023%">
            <stop offset="0%" stop-color="#5B79A2"/>
            <stop offset="100%" stop-color="#2E4469"/>
        </linearGradient>
        <linearGradient id="k" x1="12.8%" x2="107.421%" y1="46.721%" y2="53.239%">
            <stop offset="0%" stop-color="#587CB9"/>
            <stop offset="100%" stop-color="#2E4469" stop-opacity="0"/>
        </linearGradient>
        <linearGradient id="l" x1="4.47%" x2="68.52%" y1="46.97%" y2="53.03%">
            <stop offset="0%" stop-color="#405A7C"/>
            <stop offset="100%" stop-color="#20304C"/>
        </linearGradient>
        <linearGradient id="m" x1="75.874%" x2="92.229%" y1="34.347%" y2="96.254%">
            <stop offset="0%" stop-color="#5B79A2"/>
            <stop offset="100%" stop-color="#2E4469"/>
        </linearGradient>
        <radialGradient id="n" cx="52.436%" cy="42.955%" r="156.494%" fx="52.436%" fy="42.955%" gradientTransform="matrix(-.23077 0 0 -.21136 .645 .52)">
            <stop offset="0%" stop-color="#172743"/>
            <stop offset="100%" stop-opacity="0"/>
        </radialGradient>
        <filter id="o" width="123.1%" height="200%" x="-11.5%" y="-50%" filterUnits="objectBoundingBox">
            <feGaussianBlur in="SourceGraphic" stdDeviation="2"/>
        </filter>
        <linearGradient id="p" x1="10.618%" x2="108.667%" y1="0%" y2="133.334%">
            <stop offset="0%" stop-color="#5B79A2"/>
            <stop offset="100%" stop-color="#2E4469"/>
        </linearGradient>
        <linearGradient id="q" x1="98.741%" x2="1.259%" y1="48.741%" y2="48.741%">
            <stop offset="0%" stop-color="#21C8F6"/>
            <stop offset="100%" stop-color="#637BFF"/>
        </linearGradient>
        <linearGradient id="r" x1="12.205%" x2="108.596%" y1="42.683%" y2="57.317%">
            <stop offset="0%" stop-color="#1A273E"/>
            <stop offset="100%" stop-color="#2E4469"/>
        </linearGradient>
        <path id="s" d="M6.552 0h34.695A6.552 6.552 0 0 1 47.8 6.552v27.827c0 2.7-1.656 5.123-4.171 6.104C39.495 42.094 33.193 42.9 24.72 42.9c-8.982 0-15.824-.906-20.525-2.717A6.552 6.552 0 0 1 0 34.069V6.552A6.552 6.552 0 0 1 6.552 0z"/>
        <linearGradient id="u" x1="50%" x2="50%" y1="0%" y2="97.483%">
            <stop offset="0%" stop-color="#21C8F6"/>
            <stop offset="100%" stop-color="#637BFF"/>
        </linearGradient>
        <path id="t" d="M28.748 38.105a8.823 8.823 0 0 0-2.612-6.208 8.816 8.816 0 0 0-6.176-2.583"/>
        <linearGradient id="w" x1="154.902%" x2="24.379%" y1="138.188%" y2="14.184%">
            <stop offset="0%" stop-color="#76E1FF"/>
            <stop offset="100%" stop-color="#637BFF" stop-opacity="0"/>
        </linearGradient>
        <path id="v" d="M6.552 0h34.695A6.552 6.552 0 0 1 47.8 6.552v27.827c0 2.7-1.656 5.123-4.171 6.104C39.495 42.094 33.193 42.9 24.72 42.9c-8.982 0-15.824-.906-20.525-2.717A6.552 6.552 0 0 1 0 34.069V6.552A6.552 6.552 0 0 1 6.552 0z"/>
        <linearGradient id="x" x1="13.96%" x2="105.629%" y1=".616%" y2="98.781%">
            <stop offset="0%" stop-color="#587CB9"/>
            <stop offset="100%" stop-color="#2E4469" stop-opacity="0"/>
        </linearGradient>
        <linearGradient id="B" x1="98.741%" x2="1.259%" y1="48.741%" y2="48.741%">
            <stop offset="0%" stop-color="#21C8F6"/>
            <stop offset="100%" stop-color="#637BFF"/>
        </linearGradient>
        <path id="A" d="M15.488 19.214h27.884a1.606 1.606 0 1 1 0 3.211H15.488a1.606 1.606 0 0 1 0-3.211z"/>
        <filter id="z" width="167.5%" height="753.9%" x="-33.8%" y="-233.5%" filterUnits="objectBoundingBox">
            <feOffset dy="3" in="SourceAlpha" result="shadowOffsetOuter1"/>
            <feGaussianBlur in="shadowOffsetOuter1" result="shadowBlurOuter1" stdDeviation="3"/>
            <feColorMatrix in="shadowBlurOuter1" values="0 0 0 0 0.0115609217 0 0 0 0 0.467910214 0 0 0 0 1 0 0 0 1 0"/>
        </filter>
        <linearGradient id="E" x1="98.741%" x2="1.259%" y1="48.741%" y2="48.741%">
            <stop offset="0%" stop-color="#21C8F6"/>
            <stop offset="100%" stop-color="#637BFF"/>
        </linearGradient>
        <path id="D" d="M15.909 23.943h24.883a1.606 1.606 0 1 1 0 3.211H15.908a1.606 1.606 0 0 1 0-3.211z"/>
        <filter id="C" width="174.7%" height="753.9%" x="-37.4%" y="-233.5%" filterUnits="objectBoundingBox">
            <feOffset dy="3" in="SourceAlpha" result="shadowOffsetOuter1"/>
            <feGaussianBlur in="shadowOffsetOuter1" result="shadowBlurOuter1" stdDeviation="3"/>
            <feColorMatrix in="shadowBlurOuter1" values="0 0 0 0 0.0115609217 0 0 0 0 0.467910214 0 0 0 0 1 0 0 0 1 0"/>
        </filter>
        <path id="G" d="M15.909 28.406h27.883a1.606 1.606 0 1 1 0 3.211H15.91a1.606 1.606 0 0 1 0-3.211z"/>
        <filter id="F" width="167.5%" height="753.9%" x="-33.8%" y="-233.5%" filterUnits="objectBoundingBox">
            <feOffset dy="3" in="SourceAlpha" result="shadowOffsetOuter1"/>
            <feGaussianBlur in="shadowOffsetOuter1" result="shadowBlurOuter1" stdDeviation="3"/>
            <feColorMatrix in="shadowBlurOuter1" values="0 0 0 0 0.0115609217 0 0 0 0 0.467910214 0 0 0 0 1 0 0 0 1 0"/>
        </filter>
        <linearGradient id="J" x1="98.741%" x2="1.259%" y1="48.741%" y2="48.741%">
            <stop offset="0%" stop-color="#21C8F6"/>
            <stop offset="100%" stop-color="#637BFF"/>
        </linearGradient>
        <path id="I" d="M15.909 32.869h18.883a1.606 1.606 0 0 1 0 3.211H15.91a1.606 1.606 0 1 1 0-3.211z"/>
        <filter id="H" width="195%" height="753.9%" x="-47.5%" y="-233.5%" filterUnits="objectBoundingBox">
            <feOffset dy="3" in="SourceAlpha" result="shadowOffsetOuter1"/>
            <feGaussianBlur in="shadowOffsetOuter1" result="shadowBlurOuter1" stdDeviation="3"/>
            <feColorMatrix in="shadowBlurOuter1" values="0 0 0 0 0.0115609217 0 0 0 0 0.467910214 0 0 0 0 1 0 0 0 1 0"/>
        </filter>
        <linearGradient id="K" x1="83.399%" x2="29.122%" y1="89.849%" y2="4.032%">
            <stop offset="0%" stop-color="#FFE474" stop-opacity=".131"/>
            <stop offset="100%" stop-color="#FFC540"/>
        </linearGradient>
        <linearGradient id="L" x1="98.741%" x2="1.259%" y1="48.741%" y2="48.741%">
            <stop offset="0%" stop-color="#21C8F6"/>
            <stop offset="100%" stop-color="#637BFF"/>
        </linearGradient>
        <linearGradient id="M" x1="98.741%" x2="1.259%" y1="48.741%" y2="48.741%">
            <stop offset="0%" stop-color="#21C8F6"/>
            <stop offset="100%" stop-color="#637BFF"/>
        </linearGradient>
        <linearGradient id="N" x1="88.915%" x2="3.27%" y1="100%" y2="0%">
            <stop offset="0%" stop-color="#FFE474" stop-opacity=".131"/>
            <stop offset="100%" stop-color="#FFC540"/>
        </linearGradient>
        <linearGradient id="O" x1="91.638%" x2="0%" y1="55.876%" y2="44.124%">
            <stop offset="0%" stop-color="#FFE474" stop-opacity=".131"/>
            <stop offset="100%" stop-color="#FFC540"/>
        </linearGradient>
        <linearGradient id="P" x1="0%" y1="50%" y2="50%">
            <stop offset="0%" stop-color="#F19A1A"/>
            <stop offset="100%" stop-color="#FFC73C"/>
        </linearGradient>
    </defs>
    <g fill="none" fill-rule="evenodd" transform="translate(-12)">
        <path fill="#FFF" d="M131.13 29.155l-19.566 33.89c-4.124 7.143-13.257 9.59-20.4 5.467-7.141-4.124-9.588-13.257-5.465-20.399l19.567-33.891c4.124-7.143 13.257-9.59 20.399-5.466 7.142 4.124 9.59 13.256 5.466 20.399z"/>
        <path fill="url(#a)" d="M131.776 100.163L30.956 41.692v116.527l4.274-2.504c7.09-4.153 16.206-1.772 20.36 5.318l.052.09c4.141 7.183 1.71 16.362-5.445 20.553L23.42 197.363c-7.091 4.154-16.207 1.773-20.36-5.318l-.052-.09a15.021 15.021 0 0 1-1.917-9.274V17.251a14.974 14.974 0 0 1 1.917-9.088c4.107-7.147 13.23-9.61 20.377-5.503l.05.03 144.293 83.682a14.812 14.812 0 0 1 6.768 6.13c4.142 7.184 1.71 16.363-5.444 20.554l-26.779 15.687c-7.09 4.154-16.206 1.773-20.36-5.318l-.052-.09c-4.141-7.182-1.71-16.362 5.445-20.553l4.471-2.62z" transform="rotate(30 55.792 209.319)"/>
        <ellipse cx="165.947" cy="169.26" fill="#664003" filter="url(#b)" opacity=".275" rx="12" ry="5" transform="rotate(-41 165.947 169.26)"/>
        <ellipse cx="54.54" cy="169.347" fill="#664003" filter="url(#c)" opacity=".193" rx="13" ry="4" transform="rotate(66 54.54 169.347)"/>
        <g style="mix-blend-mode:luminosity" transform="rotate(-1 9494.615 44.099)">
            <ellipse cx="114.489" cy="89.033" fill="url(#d)" opacity=".65" rx="78.489" ry="12.952"/>
            <ellipse cx="38.966" cy="90.744" fill="url(#e)" opacity=".65" rx="38" ry="12.952"/>
            <path fill="url(#f)" d="M76.188 24.73h79.657a8.73 8.73 0 0 1 8.621 10.103l-6.312 39.601a17.46 17.46 0 0 1-17.242 14.711h-49.79a17.46 17.46 0 0 1-17.242-14.71l-6.313-39.602a8.73 8.73 0 0 1 8.621-10.104z"/>
            <path fill="url(#g)" d="M73.465 20.566h85.104a8.73 8.73 0 0 1 8.597 10.245l-6.514 36.965a17.46 17.46 0 0 1-17.194 14.43H88.576a17.46 17.46 0 0 1-17.195-14.43l-6.513-36.965a8.73 8.73 0 0 1 8.597-10.245z"/>
            <path fill="#243552" d="M90.818 51.793h49.547a1.327 1.327 0 1 1 0 2.653H90.817a1.327 1.327 0 1 1 0-2.653z"/>
            <path fill="url(#h)" d="M90.818 56.65h49.547a1.327 1.327 0 1 1 0 2.653l-25.168.001h-24.38a1.327 1.327 0 0 1 0-2.653z"/>
            <path fill="#243552" d="M91.513 61.508h49.547a1.327 1.327 0 1 1 0 2.653H91.512a1.327 1.327 0 0 1 0-2.653zM91.513 66.366h49.547a1.327 1.327 0 0 1 0 2.653H91.512a1.327 1.327 0 1 1 0-2.653z"/>
            <path fill="url(#i)" d="M87.985 21.26h57.142a8.73 8.73 0 0 1 8.323 11.364l-.849 2.682a17.46 17.46 0 0 1-16.645 12.19h-38.8a17.46 17.46 0 0 1-16.645-12.19l-.85-2.682a8.73 8.73 0 0 1 8.324-11.364z"/>
            <path fill="url(#j)" d="M74.18 21.26h84.375a8.73 8.73 0 0 1 8.009 12.204l-1.528 3.522a17.46 17.46 0 0 1-16.017 10.51H83.716A17.46 17.46 0 0 1 67.7 36.987l-1.528-3.522A8.73 8.73 0 0 1 74.18 21.26z"/>
            <path fill="url(#k)" d="M73.904 21.26h84.375-84.375zm92.66 5.97a8.73 8.73 0 0 1-.276 6.234l-1.528 3.522a17.46 17.46 0 0 1-16.018 10.51H83.44a17.46 17.46 0 0 1-16.017-10.51l-1.528-3.522a8.697 8.697 0 0 1-.276-6.226 7.537 7.537 0 0 0 .673 5.058l.814 1.58a17.46 17.46 0 0 0 15.518 9.457h66.935a17.46 17.46 0 0 0 15.518-9.458l.814-1.579a7.568 7.568 0 0 0 .672-5.066z"/>
            <path fill="url(#l)" d="M105.016 24.73h23.724a8.73 8.73 0 0 1 5.743 2.154l3.88 3.39a3.163 3.163 0 0 1-2.08 5.544h-38.81a3.163 3.163 0 0 1-2.08-5.544l3.88-3.39a8.73 8.73 0 0 1 5.743-2.155z"/>
            <g transform="translate(89.732)">
                <path fill="url(#m)" d="M20.21 3.818H34.95a6.79 6.79 0 0 1 6.79 6.79v16.57a3.88 3.88 0 0 1-3.88 3.88H17.3a3.88 3.88 0 0 1-3.88-3.88v-16.57a6.79 6.79 0 0 1 6.79-6.79z"/>
                <ellipse cx="26.195" cy="6.781" fill="url(#n)" filter="url(#o)" opacity=".65" rx="26" ry="6"/>
            </g>
        </g>
        <g style="mix-blend-mode:luminosity" transform="translate(86 98.147)">
            <path fill="url(#p)" d="M14.04 0h30.856c7.754 0 14.04 6.286 14.04 14.04v32.481c0 9.305-7.543 16.848-16.848 16.848h-25.24C7.543 63.37 0 55.826 0 46.521V14.04C0 6.286 6.286 0 14.04 0z"/>
            <ellipse cx="12.268" cy="5.421" fill="url(#q)" rx="1.856" ry="1.886"/>
            <path fill="url(#r)" d="M57.843 43.73v4.715c0 9.305-7.543 16.848-16.848 16.848h-22.99c-9.305 0-16.848-7.543-16.848-16.848V43.73c0 9.304 7.543 16.848 16.848 16.848h22.99c9.305 0 16.848-7.544 16.848-16.848z"/>
            <g transform="translate(5.784 9.429)">
                <use fill="#243552" xlink:href="#s"/>
                <g stroke-linecap="round" transform="rotate(133 24.354 33.71)">
                    <use stroke="#2E4469" stroke-width="5.82" xlink:href="#t"/>
                    <use stroke="url(#u)" stroke-width="1.455" xlink:href="#t"/>
                </g>
                <mask id="y" fill="#fff">
                    <use xlink:href="#v"/>
                </mask>
                <path stroke="url(#w)" d="M6.552.5A6.052 6.052 0 0 0 .5 6.552v27.517a6.052 6.052 0 0 0 3.876 5.647C9.009 41.502 15.795 42.4 24.721 42.4c8.415 0 14.662-.799 18.725-2.383a6.052 6.052 0 0 0 3.853-5.638V6.552A6.052 6.052 0 0 0 41.247.5H6.552z"/>
                <ellipse cx="13.456" cy="8.014" fill="url(#x)" mask="url(#y)" rx="26.449" ry="26.871"/>
            </g>
            <use fill="#000" filter="url(#z)" xlink:href="#A"/>
            <use fill="url(#B)" xlink:href="#A"/>
            <use fill="#000" filter="url(#C)" xlink:href="#D"/>
            <use fill="url(#E)" xlink:href="#D"/>
            <use fill="#000" filter="url(#F)" xlink:href="#G"/>
            <use fill="url(#B)" xlink:href="#G"/>
            <g>
                <use fill="#000" filter="url(#H)" xlink:href="#I"/>
                <use fill="url(#J)" xlink:href="#I"/>
            </g>
            <g fill="#243552">
                <path d="M35.78 6.694h-1.492a.747.747 0 0 1-.739-.754c0-.417.331-.754.74-.754h1.49c.409 0 .74.337.74.754a.747.747 0 0 1-.74.754zM38.564 4.62h-1.492a.747.747 0 0 1-.739-.754c0-.417.331-.755.74-.755h1.49c.409 0 .74.338.74.755a.747.747 0 0 1-.74.754zM46.172 6.694h-8.167a.75.75 0 0 1-.744-.754.75.75 0 0 1 .744-.754h8.163a.75.75 0 0 1 .745.754.75.75 0 0 1-.745.754h.004zM48.923 4.62H40.82a.764.764 0 0 1-.774-.754c0-.417.347-.755.774-.755h8.104c.427 0 .774.338.774.755a.764.764 0 0 1-.774.754z"/>
            </g>
        </g>
        <path stroke="url(#K)" stroke-width="2" d="M100.04 98.147h30.92c7.754 0 14.04 6.286 14.04 14.04V144.3c0 9.305-7.543 16.848-16.848 16.848h-25.304C93.543 161.147 86 153.604 86 144.3v-32.112c0-7.754 6.286-14.04 14.04-14.04z"/>
        <g style="mix-blend-mode:luminosity">
            <g transform="rotate(-4 1616.926 -1047.376)">
                <ellipse cx="18.685" cy="14.263" fill="url(#L)" opacity=".398" rx="13.702" ry="13.643"/>
                <ellipse cx="54.186" cy="14.263" fill="url(#L)" opacity=".398" rx="13.702" ry="13.643"/>
                <path fill="#243552" stroke="#243552" stroke-width=".97" d="M53.891 27.163c-7.002 0-12.678-5.637-12.678-12.59s5.676-12.59 12.678-12.59c7.002 0 12.679 5.637 12.679 12.59s-5.677 12.59-12.679 12.59zm-35.402 0c-7.002 0-12.678-5.637-12.678-12.59s5.676-12.59 12.678-12.59c7.002 0 12.678 5.637 12.678 12.59s-5.676 12.59-12.678 12.59zM67.29 6.85c-1.06-1.214-3.07-2.786-4.274-3.684-.31-.246-.627-.48-.957-.7l-.021-.016v.002A14.678 14.678 0 0 0 53.891 0a14.682 14.682 0 0 0-10.395 4.287c-1.286 1.193-2.395 2.5-3.542 3.78-1.452 1.623-2.311.827-3.764.827-1.452 0-2.312.796-3.764-.826-1.147-1.28-2.256-2.588-3.542-3.781A14.787 14.787 0 0 0 18.444 0c-3.015 0-5.996.904-8.193 2.453V2.45l.023.015c-.33.22-.626.455-.935.7-1.205.9-3.268 2.471-4.327 3.685C3.44 8.653 0 8.774 0 8.774V12.5s2.058-.12 2.724.66c.393.461.817 2.681 1.51 5.004.21.828.51 1.625.858 2.39.324.76.703 1.463 1.136 2.04l.004-.003a14.69 14.69 0 0 0 12.255 6.554 14.682 14.682 0 0 0 13.37-8.563l.011-.014.034-.056c1.054-1.776 2.115-6.638 2.594-7.411.484-.782 1.694-.842 1.694-.842s1.21.06 1.694.842c.48.773 1.54 5.635 2.594 7.41l.034.057.01.014a14.68 14.68 0 0 0 13.37 8.563c5.12 0 9.626-2.606 12.252-6.554v.004c.434-.578.805-1.282 1.129-2.041.347-.764.632-1.562.843-2.39.692-2.323 1.081-4.543 1.474-5.003.666-.782 2.658-.661 2.658-.661V8.774s-3.384-.12-4.957-1.923z"/>
            </g>
            <path fill="url(#M)" d="M18.021 2.082L7.641 21.859l8.232 5.205 10.49-22.206zM53.45 2.082L43.07 21.859l8.232 5.205 10.49-22.206z" opacity=".309" transform="rotate(-4 1616.926 -1047.376)"/>
        </g>
        <g transform="rotate(7 -960.31 303.479)">
            <g transform="scale(-1 1) rotate(48 -21.368 -47.993)">
                <path stroke="url(#N)" stroke-width="3.5" d="M62.775 65.425L37.602 4.183 3.57 22.604"/>
                <circle cx="37.8" cy="4.2" r="4.2" fill="#FAC446"/>
                <path fill="#FFF" fill-opacity=".2" d="M35.2 7.2a4 4 0 1 1 5.6-5.6 4 4 0 0 0-5.6 5.6z"/>
            </g>
            <rect width="4.8" height="13.2" x="54.785" y="10.023" fill="#FAC446" rx="2.4" transform="rotate(-7 57.185 16.623)"/>
        </g>
        <g transform="scale(-1 1) rotate(-24 225.754 546.378)">
            <g transform="scale(-1 1) rotate(48 -19.868 -44.624)">
                <path stroke="url(#O)" stroke-width="3.5" d="M57.303 22.196L37.602 4.183 3.57 22.604"/>
                <circle cx="37.8" cy="4.2" r="4.2" fill="#FAC446"/>
                <path fill="#FFF" fill-opacity=".2" d="M35.2 7.2a4 4 0 1 1 5.6-5.6 4 4 0 0 0-5.6 5.6z"/>
            </g>
            <rect width="4.8" height="13.2" x="51.785" y="10.023" fill="#FAC446" rx="2.4" transform="rotate(25 54.185 16.623)"/>
        </g>
        <path fill="url(#P)" d="M44.133 212.115h13.67c9.204 0 16.665 7.461 16.665 16.665 0 9.203-7.461 16.664-16.665 16.664h-13.67c-9.203 0-16.664-7.46-16.664-16.664s7.46-16.665 16.664-16.665z" transform="rotate(119 50.968 228.78)"/>
    </g>
</svg>
